<svg xmlns="http://www.w3.org/2000/svg" viewBox="0 0 640 640" width="640" height="640" role="img">
<defs>
  <linearGradient id="bggaggiaanimaprestige1" x1="0" y1="0" x2="0" y2="1">
    <stop offset="0" stop-color="#f8f2e8"/><stop offset="1" stop-color="#eadfcd"/>
  </linearGradient>
  <radialGradient id="glowgaggiaanimaprestige1" cx="50%" cy="38%" r="52%">
    <stop offset="0" stop-color="#4a72c4" stop-opacity=".22"/>
    <stop offset="1" stop-color="#4a72c4" stop-opacity="0"/>
  </radialGradient>
  <linearGradient id="bodygaggiaanimaprestige1" x1="0" y1="0" x2="1" y2="0">
    <stop offset="0" stop-color="#8d9196"/>
    <stop offset=".42" stop-color="#c2c5c9"/>
    <stop offset="1" stop-color="#8d9196"/>
  </linearGradient>
  <linearGradient id="chromegaggiaanimaprestige1" x1="0" y1="0" x2="1" y2="0">
    <stop offset="0" stop-color="#33363b" stop-opacity=".55"/>
    <stop offset=".5" stop-color="#33363b"/>
    <stop offset="1" stop-color="#33363b" stop-opacity=".55"/>
  </linearGradient>
  <linearGradient id="scrgaggiaanimaprestige1" x1="0" y1="0" x2="1" y2="1">
    <stop offset="0" stop-color="#0e1a33"/><stop offset="1" stop-color="#05070a"/>
  </linearGradient>
</defs>
<rect width="640" height="640" fill="url(#bggaggiaanimaprestige1)"/>
<rect width="640" height="640" fill="url(#glowgaggiaanimaprestige1)"/>
<ellipse cx="320" cy="556" rx="196" ry="24" fill="#2a201a" opacity=".14"/><rect x="216" y="88" width="208" height="34" rx="16" fill="url(#chromegaggiaanimaprestige1)"/><rect x="248" y="80" width="144" height="16" rx="8" fill="#8d9196" opacity=".85"/><rect x="196" y="116" width="248" height="352" rx="26" fill="url(#bodygaggiaanimaprestige1)"/><rect x="206" y="130" width="10" height="322" rx="5" fill="#ffffff" opacity=".14"/><rect x="226" y="150" width="188" height="78" rx="12" fill="url(#scrgaggiaanimaprestige1)"/><rect x="240" y="166" width="70" height="8" rx="4" fill="#4a72c4" opacity=".85"/><rect x="240" y="184" width="118" height="6" rx="3" fill="#ffffff" opacity=".34"/><rect x="240" y="198" width="92" height="6" rx="3" fill="#ffffff" opacity=".2"/><circle cx="356" cy="210" r="6" fill="#4a72c4" opacity="0.90"/><circle cx="380" cy="210" r="6" fill="#4a72c4" opacity="0.62"/><circle cx="404" cy="210" r="6" fill="#4a72c4" opacity="0.34"/><rect x="226" y="240" width="188" height="3" rx="1.5" fill="url(#chromegaggiaanimaprestige1)" opacity=".7"/><rect x="246" y="256" width="148" height="62" rx="14" fill="#8d9196"/><rect x="258" y="268" width="124" height="6" rx="3" fill="url(#chromegaggiaanimaprestige1)" opacity=".8"/><rect x="292" y="316" width="12" height="20" rx="4" fill="url(#chromegaggiaanimaprestige1)"/><rect x="336" y="316" width="12" height="20" rx="4" fill="url(#chromegaggiaanimaprestige1)"/><path d="M282 372 L358 372 L349 424 Q348 432 340 432 L300 432 Q292 432 291 424 Z" fill="#fdfaf4"/><path d="M282 372 L358 372 L356 384 L284 384 Z" fill="#e8ddcb"/><path d="M358 384 q22 2 20 18 q-2 16 -22 16" fill="none" stroke="#fdfaf4" stroke-width="7" stroke-linecap="round"/><ellipse cx="320" cy="374" rx="36" ry="6" fill="#6b4224"/><ellipse cx="320" cy="373" rx="26" ry="4" fill="#c08a4e" opacity=".8"/><rect x="256" y="436" width="128" height="14" rx="4" fill="url(#chromegaggiaanimaprestige1)"/><rect x="196" y="452" width="248" height="26" rx="12" fill="#8d9196"/><rect x="120" y="330" width="76" height="118" rx="12" fill="#f2f4f6" opacity=".92"/><rect x="120" y="330" width="76" height="24" rx="10" fill="#33363b"/><rect x="130" y="372" width="56" height="66" rx="8" fill="#ffffff" opacity=".7"/><rect x="188" y="352" width="34" height="9" rx="4" fill="#33363b"/></svg>